<?xml version="1.0" standalone="no"?>
<!DOCTYPE svg PUBLIC "-//W3C//DTD SVG 20010904//EN"
 "http://www.w3.org/TR/2001/REC-SVG-20010904/DTD/svg10.dtd">
<svg version="1.0" xmlns="http://www.w3.org/2000/svg"
 width="395.000000pt" height="125.000000pt" viewBox="0 0 395.000000 125.000000"
 preserveAspectRatio="xMidYMid meet">
<metadata>
Created by potrace 1.15, written by Peter Selinger 2001-2017
</metadata>
<g transform="translate(0.000000,125.000000) scale(0.100000,-0.100000)"
fill="#000000" stroke="none">
<path d="M2450 1100 l0 -130 -95 0 -95 0 0 -95 0 -95 95 0 95 0 0 -270 c0
-294 7 -349 50 -408 46 -64 104 -86 238 -90 63 -3 147 -1 188 3 l74 7 0 95 0
95 -72 -8 c-158 -19 -220 -4 -232 57 -3 17 -6 141 -6 275 l0 244 155 0 155 0
0 95 0 95 -155 0 -155 0 0 130 0 130 -120 0 -120 0 0 -130z"/>
<path d="M359 976 c-25 -7 -61 -21 -81 -33 l-35 -20 5 23 4 24 -116 0 -116 0
0 -470 0 -470 120 0 120 0 0 330 c0 386 -1 382 80 399 28 6 89 11 135 11 l85
0 0 110 0 110 -77 -1 c-43 0 -99 -6 -124 -13z"/>
<path d="M940 979 c-164 -14 -267 -78 -306 -190 -17 -47 -19 -85 -19 -304 l0
-250 29 -58 c32 -66 78 -104 165 -138 79 -31 317 -39 463 -14 55 9 107 19 114
22 11 4 14 31 14 110 0 91 -2 104 -16 99 -55 -21 -231 -48 -314 -48 -163 -1
-210 33 -210 152 l0 60 285 0 285 0 0 158 c0 220 -25 290 -124 351 -70 43
-212 63 -366 50z m227 -212 c12 -12 19 -38 21 -87 l4 -70 -166 0 -166 0 0 63
c0 104 23 118 177 115 91 -3 116 -6 130 -21z"/>
<path d="M1752 979 c-140 -21 -239 -84 -261 -166 -14 -50 -14 -172 0 -228 14
-57 66 -117 126 -145 41 -20 72 -24 202 -30 182 -9 191 -14 191 -105 0 -84
-17 -98 -126 -103 -77 -3 -291 17 -361 35 -23 5 -23 4 -23 -100 l0 -106 58 -8
c31 -4 147 -8 257 -8 182 0 205 2 259 22 78 30 119 63 147 120 21 42 24 62 24
168 0 105 -3 125 -22 162 -47 87 -115 113 -321 122 -136 6 -156 9 -168 26 -17
24 -18 105 -1 129 28 38 157 46 342 21 61 -8 116 -15 123 -15 9 0 12 26 12 99
l0 99 -42 6 c-84 11 -354 15 -416 5z"/>
<path d="M3279 966 c-107 -29 -168 -93 -193 -205 -19 -83 -22 -432 -5 -527 14
-80 50 -138 104 -170 76 -44 134 -54 330 -54 247 0 317 20 375 108 46 69 52
121 48 397 l-3 251 -33 67 c-39 78 -87 113 -186 134 -79 16 -375 16 -437 -1z
m393 -204 c22 -22 23 -29 26 -251 4 -268 -1 -293 -65 -310 -49 -14 -197 -14
-245 -1 -66 19 -68 26 -68 296 0 293 -3 284 111 293 124 10 215 0 241 -27z"/>
</g>
</svg>
