<svg height="424pt" viewBox="0 -25 424 424" width="424pt" xmlns="http://www.w3.org/2000/svg"><path d="m198.613281 253.128906c-1.976562 0-3.941406-.832031-5.324219-2.453125l-20.148437-23.59375c-2.511719-2.941406-2.164063-7.359375.777344-9.871093 2.9375-2.511719 7.355469-2.160157 9.867187.777343l15.710938 18.398438 41.621094-33.863281c3-2.441407 7.40625-1.984376 9.847656 1.011718 2.441406 3 1.988281 7.410156-1.011719 9.847656l-46.925781 38.175782c-1.296875 1.058594-2.859375 1.570312-4.414063 1.570312zm0 0"/><path d="m210.675781 329.042969c-.953125 0-1.90625-.195313-2.796875-.582031l-10.339844-4.507813c-41.335937-18.058594-68.0625-58.867187-68.09375-103.972656v-47.109375c0-2.558594 1.394532-4.910156 3.632813-6.140625l74.496094-40.828125c2.070312-1.132813 4.574219-1.148438 6.65625-.039063l76.617187 40.828125c2.28125 1.214844 3.707032 3.59375 3.707032 6.179688v46.042968c-.007813 45.777344-27.277344 86.800782-69.472657 104.53125l-11.632812 5.023438c-.886719.382812-1.832031.574219-2.773438.574219zm-67.230469-152.027344v42.960937c.027344 39.535157 23.457032 75.3125 59.691407 91.144532l7.550781 3.289062 8.875-3.832031c.023438-.007813.042969-.019531.066406-.027344 37.003906-15.535156 60.917969-51.503906 60.925782-91.636719v-41.84375l-69.570313-37.070312zm0 0"/><path d="m377 374.085938h-330c-25.914062 0-47-21.082032-47-47v-280.085938c0-25.914062 21.085938-47 47-47h330c25.914062 0 47 21.085938 47 47v280.085938c0 25.917968-21.085938 47-47 47zm-330-360.085938c-18.195312 0-33 14.804688-33 33v280.085938c0 18.195312 14.804688 33 33 33h330c18.195312 0 33-14.804688 33-33v-280.085938c0-18.195312-14.804688-33-33-33zm0 0"/><path d="m417 112.089844h-410c-3.867188 0-7-3.132813-7-7 0-3.863282 3.132812-7 7-7h410c3.867188 0 7 3.136718 7 7 0 3.867187-3.132812 7-7 7zm0 0"/><path d="m119.601562 78.59375c-12.210937 0-22.152343-9.941406-22.152343-22.152344 0-12.214844 9.941406-22.152344 22.152343-22.152344 12.214844 0 22.152344 9.9375 22.152344 22.152344 0 12.210938-9.9375 22.152344-22.152344 22.152344zm0-30.304688c-4.492187 0-8.152343 3.65625-8.152343 8.152344s3.660156 8.152344 8.152343 8.152344c4.496094 0 8.152344-3.65625 8.152344-8.152344s-3.65625-8.152344-8.152344-8.152344zm0 0"/><path d="m51.539062 78.378906c-12.214843 0-22.152343-9.9375-22.152343-22.152344 0-12.214843 9.9375-22.152343 22.152343-22.152343 12.214844 0 22.152344 9.9375 22.152344 22.152343 0 12.214844-9.9375 22.152344-22.152344 22.152344zm0-30.304687c-4.492187 0-8.152343 3.660156-8.152343 8.152343 0 4.496094 3.660156 8.152344 8.152343 8.152344 4.496094 0 8.152344-3.65625 8.152344-8.152344 0-4.492187-3.65625-8.152343-8.152344-8.152343zm0 0"/><path d="m187.664062 78.804688c-12.210937 0-22.148437-9.9375-22.148437-22.152344 0-12.210938 9.9375-22.148438 22.148437-22.148438 12.214844 0 22.152344 9.9375 22.152344 22.148438 0 12.214844-9.9375 22.152344-22.152344 22.152344zm0-30.304688c-4.492187 0-8.148437 3.65625-8.148437 8.152344s3.65625 8.152344 8.148437 8.152344c4.496094 0 8.152344-3.65625 8.152344-8.152344s-3.65625-8.152344-8.152344-8.152344zm0 0"/></svg>