<?xml version="1.0" standalone="no"?>
<svg
  width="600"
  height="600"
  viewBox="0 0 600 600"
  xmlns="http://www.w3.org/2000/svg"
>
  <g transform="translate(300,300)">
    <path d="M137.7,-216.1C178.8,-187.8,212.6,-150.2,225.4,-107.3C238.2,-64.4,230,-16.3,222,31.2C214.1,78.7,206.4,125.4,178.4,150.7C150.4,175.9,102.1,179.6,58,188.3C13.9,197,-26,210.8,-64,205.3C-101.9,199.9,-137.9,175.3,-174.5,144.7C-211.2,114.1,-248.6,77.6,-260.6,33.8C-272.6,-10,-259.1,-61.1,-229.3,-95.7C-199.4,-130.3,-153.2,-148.4,-112.3,-176.7C-71.4,-205,-35.7,-243.5,6.3,-253.3C48.3,-263.2,96.6,-244.3,137.7,-216.1Z" fill="#eb144c" />
  </g>
</svg>
    