<?xml version="1.0" standalone="no"?>
<svg
  width="600"
  height="600"
  viewBox="0 0 600 600"
  xmlns="http://www.w3.org/2000/svg"
>
  <g transform="translate(300,300)">
    <path d="M144.6,-187.9C180.3,-173.1,197.1,-121.3,214.1,-69.5C231.1,-17.6,248.2,34.3,235.8,77.8C223.3,121.4,181.3,156.6,137.1,183.9C92.9,211.2,46.4,230.6,1.2,229C-44.1,227.3,-88.2,204.7,-130.2,176.7C-172.2,148.6,-212.1,115.3,-219.4,75.4C-226.7,35.5,-201.3,-10.8,-176.4,-48.1C-151.6,-85.3,-127.2,-113.4,-97.9,-130.2C-68.6,-147.1,-34.3,-152.5,10.1,-166.4C54.5,-180.3,108.9,-202.6,144.6,-187.9Z" fill="#8ed1fc" />
  </g>
</svg>
    