<?xml version="1.0" standalone="no"?>
<svg
  width="600"
  height="600"
  viewBox="0 0 600 600"
  xmlns="http://www.w3.org/2000/svg"
>
  <g transform="translate(300,300)">
    <path d="M128.9,-179.1C171.2,-146.7,212.6,-114.6,227.1,-73.1C241.6,-31.5,229.2,19.5,209.9,64.9C190.6,110.3,164.4,150.2,128.2,174.3C92.1,198.4,46,206.7,-5.6,214.4C-57.2,222.1,-114.4,229.2,-158.2,207.5C-201.9,185.9,-232.2,135.6,-234,86.3C-235.9,37.1,-209.2,-11.1,-190.4,-59.6C-171.5,-108.1,-160.4,-156.8,-130,-193C-99.5,-229.3,-49.8,-253.2,-3.2,-248.7C43.3,-244.3,86.6,-211.5,128.9,-179.1Z" fill="#ABB8C3" />
  </g>
</svg>
    