<?xml version="1.0" standalone="no"?>
<svg
  width="600"
  height="600"
  viewBox="0 0 600 600"
  xmlns="http://www.w3.org/2000/svg"
>
  <g transform="translate(300,300)">
    <path d="M118.8,-160.8C158.4,-134.7,198.1,-106,211,-68.1C223.8,-30.3,209.9,16.7,185.8,51C161.8,85.3,127.6,107,95,134.5C62.3,162.1,31.2,195.5,-4.1,201.2C-39.4,206.9,-78.8,184.7,-125.7,161.8C-172.6,138.9,-227.1,115.2,-232.9,79.8C-238.7,44.4,-195.9,-2.7,-167.8,-43.8C-139.7,-84.9,-126.3,-120.1,-100.8,-150.8C-75.2,-181.6,-37.6,-207.8,1,-209.1C39.6,-210.5,79.2,-186.9,118.8,-160.8Z" fill="#FCB900" />
  </g>
</svg>
    