<svg xmlns="http://www.w3.org/2000/svg" width="295" height="79" viewBox="0 0 1500 400"><g><path d="M9.968 124.028v148.68h53.273v-116.099l34.975 116.099h44.94l35.386-116.099v116.099h53.378v-148.68h-84.234l-27.147 90.572-25.14-90.572h-85.431zm254.522 0v148.68h57.604v-148.68h-57.604zm90.067 0v148.68h58.414v-45.339h34.377c7.169 0 12.264 1.114 15.281 3.321 3.083 2.216 4.92 6.029 5.528 11.455.337 2.881.58 6.975.716 12.265.19 9.05 1.268 15.146 3.204 18.298h64.047v-2.312c-4.29-2.149-6.918-12.929-7.852-32.37-.066-2.014-.133-3.582-.2-4.73-.472-10.255-2.039-17.388-4.73-21.408-2.611-4.086-7.206-7.513-13.767-10.258 7.641-2.951 13.648-7.736 18.004-14.366 4.357-6.708 6.526-14.448 6.526-23.227 0-7.239-1.474-13.604-4.425-19.096-2.881-5.573-7.103-9.986-12.664-13.274-4.357-2.61-10.424-4.523-18.204-5.728-7.777-1.271-18.124-1.913-31.055-1.913h-113.2zm285.202 0v82.439c0 12.529-1.334 20.832-4.014 24.929-2.68 4.086-7.479 6.138-14.377 6.138-6.033 0-10.487-2.156-13.368-6.443-2.881-4.287-4.331-10.924-4.331-19.894v-2.124h-57.803v6.831c0 21.654 6.098 37.239 18.286 46.747 12.203 9.457 32.378 14.178 60.526 14.178 15.217 0 28.04-1.809 38.496-5.434 10.526-3.61 18.494-9.014 23.931-16.185 3.749-4.95 6.392-10.956 7.934-17.992 1.541-7.033 2.324-19.228 2.324-36.583v-76.605h-57.604zm128.176 0l-64.446 148.68h61.723l5.328-14.589h63.237l4.918 14.589h62.427l-60.115-148.68h-73.073zm143.34 0v148.68h54.294v-87.051l62.416 87.051h64.646v-148.68h-55.796v85.643l-57.404-85.643h-68.155zm-498.305 37.698h32.17c10.116 0 16.845.975 20.199 2.911 3.423 1.878 5.141 5.229 5.141 10.047 0 4.896-1.809 8.385-5.434 10.457-3.547 2.083-9.717 3.122-18.497 3.122h-33.579v-26.537zm390.151 7.429l17.887 52.275h-36.888l19.002-52.275zm518.046-140.606c-91.936 0-166.462 74.367-166.462 166.098 0 91.743 74.526 166.109 166.462 166.109 91.944 0 166.485-74.367 166.485-166.109 0-91.731-74.541-166.098-166.485-166.098zm-69.235 92.016c17.66 0 32.863 5.046 42.135 12.453 9.271 7.344 12.3 19.098 12.3 32.593 0 8.85-2.247 17.263-6.725 25.234-4.415 7.971-11.194 16.185-20.34 24.659-5.739 5.272-9.021 9.334-14.823 13.791-5.803 4.394-7.188 6.094-9.648 7.852l57.991.34-.024 31.22-110.583.035.083-25.739c8.451-6.088 16.9-12.559 25.351-19.401 8.515-6.841 15.325-12.74 20.434-17.699 7.631-7.344 13.062-13.741 16.279-19.201 3.217-5.461 4.824-10.862 4.824-16.197 0-6.402-2.081-11.324-6.244-14.776-4.1-3.515-10.023-5.282-17.781-5.282-5.802 0-11.659 2.2-18.227 4.284-7.494 3.322-3.646 1.659-10.293 4.272l-10.083-27.1c4.478-1.946 10.227-5.671 18.931-7.617 8.767-1.946 17.676-3.721 26.443-3.721zm169.912.153v83.718l18.063.141.235 29.576h-18.297l-.048 34.494-34.365.012.047-34.365-63.695-.141v-27.91l54.306-85.138 43.754-.387zm-34.377 34.295l-27.605 49.517 27.64.129-.036-49.646z" fill="#e50000"/></g></svg>