<?xml version="1.0" encoding="UTF-8"?>
<svg width="59px" height="30px" viewBox="0 0 59 30" version="1.1" xmlns="http://www.w3.org/2000/svg" xmlns:xlink="http://www.w3.org/1999/xlink">
    <!-- Generator: Sketch 52.4 (67378) - http://www.bohemiancoding.com/sketch -->
    <title>php-logo</title>
    <desc>Created with Sketch.</desc>
    <g id="SINGLE-TECHNOLOGY" stroke="none" stroke-width="1" fill="none" fill-rule="evenodd">
        <g id="php-logo" fill="#888888" fill-rule="nonzero">
            <path d="M4.64020408,6.1977551 L13.3365306,6.1977551 C15.8889796,6.21918367 17.7385714,6.95510204 18.8853061,8.40428571 C20.0320408,9.85346939 20.4104082,11.8328571 20.0210204,14.342449 C19.8697959,15.4891837 19.5342857,16.6138776 19.015102,17.7171429 C18.5173469,18.8204082 17.8255102,19.8153061 16.9383673,20.702449 C15.8565306,21.8271429 14.6993878,22.5410204 13.4663265,22.8440816 C12.2332653,23.1471429 10.9567347,23.2983673 9.63734694,23.2983673 L5.74346939,23.2983673 L4.51040816,29.4636735 L0,29.4636735 L4.64020408,6.1977551 M8.43673469,9.89693878 L6.48979592,19.6316327 C6.61959184,19.6530612 6.74938776,19.6640816 6.87918367,19.6640816 C7.03040816,19.6640816 7.1822449,19.6640816 7.33346939,19.6640816 C9.41020408,19.6855102 11.1410204,19.4804082 12.5253061,19.047551 C13.9095918,18.5932653 14.8402041,17.0142857 15.3159184,14.31 C15.7053061,12.0385714 15.3159184,10.7295918 14.1477551,10.3836735 C13.0010204,10.0377551 11.5628571,9.8755102 9.83204082,9.89693878 C9.57244898,9.91836735 9.32387755,9.92938776 9.08571429,9.92938776 C8.86959184,9.92938776 8.64244898,9.92938776 8.40428571,9.92938776 L8.43673469,9.89693878" id="Shape"></path>
            <path d="M25.1589796,0 L29.6369388,0 L28.3714286,6.1977551 L32.395102,6.1977551 C34.6016327,6.24122449 36.2455102,6.6955102 37.3273469,7.56061224 C38.4306122,8.42571429 38.755102,10.0702041 38.3008163,12.4928571 L36.1267347,23.2983673 L31.5838776,23.2983673 L33.6606122,12.9795918 C33.8767347,11.8977551 33.8118367,11.13 33.4659184,10.6757143 C33.12,10.2214286 32.3736735,9.99428571 31.2269388,9.99428571 L27.625102,9.96183673 L24.9642857,23.2983673 L20.4863265,23.2983673 L25.1589796,0" id="Shape"></path>
            <path d="M43.1093878,6.1977551 L51.8057143,6.1977551 C54.3581633,6.21918367 56.2077551,6.95510204 57.3544898,8.40428571 C58.5012245,9.85346939 58.8795918,11.8328571 58.4902041,14.342449 C58.3389796,15.4891837 58.0034694,16.6138776 57.4842857,17.7171429 C56.9865306,18.8204082 56.2946939,19.8153061 55.407551,20.702449 C54.3257143,21.8271429 53.1685714,22.5410204 51.9355102,22.8440816 C50.702449,23.1471429 49.4259184,23.2983673 48.1065306,23.2983673 L44.2126531,23.2983673 L42.9795918,29.4636735 L38.4691837,29.4636735 L43.1093878,6.1977551 M46.9059184,9.89693878 L44.9589796,19.6316327 C45.0887755,19.6530612 45.2185714,19.6640816 45.3483673,19.6640816 C45.4995918,19.6640816 45.6514286,19.6640816 45.8026531,19.6640816 C47.8793878,19.6855102 49.6102041,19.4804082 50.9944898,19.047551 C52.3787755,18.5932653 53.3093878,17.0142857 53.785102,14.31 C54.1744898,12.0385714 53.785102,10.7295918 52.6169388,10.3836735 C51.4702041,10.0377551 50.0320408,9.8755102 48.3012245,9.89693878 C48.0416327,9.91836735 47.7930612,9.92938776 47.554898,9.92938776 C47.3387755,9.92938776 47.1116327,9.92938776 46.8734694,9.92938776 L46.9059184,9.89693878" id="Shape"></path>
        </g>
    </g>
</svg>