<?xml version="1.0" encoding="UTF-8"?>
<svg width="118px" height="30px" viewBox="0 0 118 30" version="1.1" xmlns="http://www.w3.org/2000/svg" xmlns:xlink="http://www.w3.org/1999/xlink">
    <!-- Generator: Sketch 52.4 (67378) - http://www.bohemiancoding.com/sketch -->
    <title>symfony logo</title>
    <desc>Created with Sketch.</desc>
    <g id="SINGLE-TECHNOLOGY" stroke="none" stroke-width="1" fill="none" fill-rule="evenodd">
        <g id="symfony-logo" fill="#888888" fill-rule="nonzero">
            <g id="compacte">
                <g id="Group">
                    <path d="M14.7257895,0.334736842 C6.65157895,0.334736842 0.105263158,6.88 0.105263158,14.9547368 C0.105263158,23.0305263 6.65157895,29.5773684 14.7257895,29.5773684 C22.8015789,29.5773684 29.3478947,23.0305263 29.3478947,14.9547368 C29.3473684,6.87947368 22.8010526,0.334736842 14.7257895,0.334736842 Z M22.6105263,8.79631579 C21.9336842,8.82 21.4668421,8.41631579 21.4447368,7.80105263 C21.4378947,7.57526316 21.4957895,7.37842105 21.6505263,7.14842105 C21.8015789,6.85315789 21.8336842,6.81947368 21.8294737,6.69052632 C21.8163158,6.30368421 21.2315789,6.28842105 21.0715789,6.29631579 C18.8768421,6.36842105 18.2984211,9.33105263 17.8294737,11.7394737 L17.5994737,13.0094737 C18.8631579,13.1947368 19.7605263,12.9663158 20.2610526,12.6426316 C20.9657895,12.1857895 20.0642105,11.7157895 20.1773684,11.1952632 C20.2931579,10.6647368 20.7752632,10.4094737 21.1589474,10.3984211 C21.6952632,10.3857895 22.0784211,10.9415789 22.0663158,11.5063158 C22.0468421,12.4394737 20.8073684,13.7231579 18.33,13.6710526 C18.0278947,13.6636842 17.75,13.6426316 17.4910526,13.6115789 L17.0236842,16.1921053 C16.6047368,18.1463158 16.0484211,20.8163158 14.0594737,23.1457895 C12.35,25.1773684 10.6163158,25.4931579 9.83894737,25.5194737 C8.38631579,25.5684211 7.42263158,24.7942105 7.38789474,23.76 C7.35368421,22.7589474 8.23947368,22.2115789 8.82105263,22.1921053 C9.59684211,22.1657895 10.1331579,22.7278947 10.1536842,23.3757895 C10.1731579,23.9236842 9.88736842,24.0947368 9.69842105,24.1984211 C9.57157895,24.2994737 9.38105263,24.4036842 9.38842105,24.63 C9.39315789,24.7263158 9.49789474,24.9478947 9.81947368,24.9373684 C10.4342105,24.9168421 10.8415789,24.6131579 11.1268421,24.41 C12.5421053,23.2305263 13.0873684,21.1747368 13.8005263,17.4326316 L13.95,16.5252632 C14.1931579,15.3078947 14.4631579,13.9510526 14.8747368,12.5994737 C13.8763158,11.8484211 13.2784211,10.9168421 11.9368421,10.5531579 C11.0168421,10.3031579 10.4557895,10.5152632 10.0615789,11.0136842 C9.59473684,11.6042105 9.75,12.3726316 10.2015789,12.8236842 L10.9463158,13.6468421 C11.86,14.7036842 12.36,15.5247368 12.1721053,16.6305263 C11.8747368,18.3952632 9.77105263,19.7484211 7.28631579,18.9847368 C5.16473684,18.3310526 4.76789474,16.8284211 5.02263158,16.0010526 C5.24736842,15.2726316 5.82578947,15.1352632 6.39210526,15.3094737 C6.99789474,15.4957895 7.23526316,16.2321053 7.06157895,16.7989474 C7.04210526,16.8584211 7.01105263,16.96 6.94736842,17.0952632 C6.87736842,17.2515789 6.74736842,17.3878947 6.69052632,17.5705263 C6.55421053,18.0142105 7.16315789,18.3294737 7.58789474,18.46 C8.53631579,18.7515789 9.46210526,18.2552632 9.69736842,17.4873684 C9.91578947,16.7810526 9.46894737,16.2889474 9.28368421,16.0994737 L8.38578947,15.1373684 C7.97421053,14.6789474 7.06947368,13.4026316 7.51105263,11.9684211 C7.68052632,11.4163158 8.03842105,10.8289474 8.55894737,10.4415789 C9.65631579,9.62368421 10.8494737,9.48894737 11.9857895,9.81526316 C13.4563158,10.2394737 14.1631579,11.2115789 15.0794737,11.9626316 C15.5915789,10.4589474 16.3021053,8.98631579 17.3710526,7.74473684 C18.3357895,6.61210526 19.6326316,5.79315789 21.1184211,5.74210526 C22.6026316,5.69368421 23.7242105,6.36578947 23.7615789,7.43052632 C23.7763158,7.88526316 23.5152632,8.76684211 22.6105263,8.79631579 Z" id="Shape"></path>
                    <g transform="translate(36.842105, 5.263158)" id="Shape">
                        <path d="M51.9142105,5.57789474 C55.2847368,5.57789474 57.5457895,8.01368421 57.5457895,11.3836842 C57.5457895,14.5589474 55.2410526,17.1894737 51.9142105,17.1894737 C48.5657895,17.1894737 46.2610526,14.5589474 46.2610526,11.3836842 C46.2610526,8.01421053 48.5210526,5.57789474 51.9142105,5.57789474 Z M51.9142105,15.5384211 C54.3057895,15.5384211 55.3705263,13.3631579 55.3705263,11.3831579 C55.3705263,9.27473684 54.0878947,7.23052632 51.9142105,7.23052632 C49.7184211,7.23052632 48.4357895,9.27473684 48.4357895,11.3831579 C48.4352632,13.3636842 49.5005263,15.5384211 51.9142105,15.5384211 Z"></path>
                        <path d="M45.9805263,6.61 L45.9805263,5.83894737 L43.0447368,5.83894737 L43.0447368,4.78421053 C43.0447368,3.28421053 43.2615789,2.15263158 45.0231579,2.15263158 C45.0557895,2.15263158 45.0894737,2.15526316 45.1226316,2.15631579 C45.1263158,2.15631579 45.1257895,2.15105263 45.1305263,2.15105263 C45.6194737,2.18684211 46.0252632,1.78894737 46.0536842,1.30052632 L46.0889474,0.631052632 C45.6768421,0.565789474 45.2394737,0.500526316 44.7194737,0.500526316 C41.6968421,0.500526316 41.0005263,2.26210526 41.0005263,4.95842105 L41.0005263,5.83947368 L38.3905263,5.83947368 L38.3905263,6.70052632 C38.4573684,7.14684211 38.8394737,7.49 39.3052632,7.49 C39.3073684,7.49 39.3094737,7.49263158 39.3121053,7.49263158 L41.0005263,7.49263158 L41.0005263,16.9294737 L42.1273684,16.9294737 C42.1289474,16.9294737 42.1284211,16.9289474 42.13,16.9289474 C42.5984211,16.9289474 42.9815789,16.5778947 43.0447368,16.1278947 L43.0447368,7.49210526 L45.0889474,7.49210526 C45.5710526,7.47631579 45.9578947,7.09105263 45.9805263,6.61 Z"></path>
                        <path d="M18.7536842,5.83894737 C18.7494737,5.83894737 18.7484211,5.84105263 18.7436842,5.84105263 C18.3121053,5.84105263 17.8957895,6.13684211 17.7136842,6.53736842 L14.9005263,15.0157895 L14.8568421,15.0157895 L12.1052632,6.54105263 C11.9257895,6.13894737 11.5063158,5.84052632 11.0736842,5.84052632 C11.0689474,5.84052632 11.0668421,5.83842105 11.0626316,5.83842105 L9.63736842,5.83842105 L13.3989474,16.1894737 C13.53,16.5594737 13.7910526,17.1247368 13.7910526,17.3636842 C13.7910526,17.5805263 13.1821053,20.1026316 11.3552632,20.1026316 C11.3110526,20.1026316 11.2642105,20.0973684 11.2194737,20.0947368 C10.7536842,20.0689474 10.4015789,20.3947368 10.3231579,20.8957895 L10.2678947,21.6031579 C10.6373684,21.6684211 11.0084211,21.7557895 11.6610526,21.7557895 C14.3568421,21.7557895 15.1605263,19.2978947 15.9226316,17.1678947 L20.0110526,5.83789474 L18.7536842,5.83789474 L18.7536842,5.83894737 Z"></path>
                        <path d="M5.76,8.09157895 C4.07157895,7.22736842 2.22526316,6.64105263 2.19263158,4.90315789 C2.19789474,3.05736842 3.89315789,2.57263158 5.20105263,2.57473684 C5.20631579,2.57315789 5.21210526,2.57315789 5.21473684,2.57315789 C5.78210526,2.57315789 6.23578947,2.62947368 6.67947368,2.72684211 C6.68473684,2.72684211 6.68421053,2.72 6.69210526,2.72 C7.16052632,2.75421053 7.55210526,2.38789474 7.60789474,1.92631579 L7.64526316,1.25631579 C6.78842105,1.04368421 5.89315789,0.935789474 5.11368421,0.935789474 C2.27157895,0.953157895 0.161578947,2.38315789 0.154210526,5.11157895 C0.158947368,7.49684211 1.76684211,8.42210526 3.49526316,9.25894737 C5.19157895,10.0742105 7.05,10.7473684 7.06526316,12.7163158 C7.05526316,14.77 5.07263158,15.5273684 3.70684211,15.53 C2.90789474,15.5273684 2.04052632,15.3278947 1.31052632,15.0978947 C0.852105263,15.0226316 0.476315789,15.4263158 0.417894737,15.9615789 L0.355789474,16.5594737 C1.36052632,16.8842105 2.39052632,17.1673684 3.42526316,17.1673684 C3.42526316,17.1673684 3.42631579,17.1673684 3.42894737,17.1673684 C3.43157895,17.1673684 3.43368421,17.1673684 3.43894737,17.1673684 C6.62105263,17.1442105 9.09526316,15.8742105 9.10526316,12.5784211 C9.1,10.0336842 7.48105263,8.96578947 5.76,8.09157895 Z"></path>
                        <path d="M36.6757895,16.9289474 C36.6768421,16.9289474 36.6768421,16.9284211 36.6778947,16.9284211 C37.1194737,16.9284211 37.4868421,16.6194737 37.5810526,16.2047368 L37.5810526,9.81894737 C37.5810526,7.40526316 36.56,5.57789474 33.7310526,5.57789474 C32.7321053,5.57789474 31.0584211,6.14421053 30.2973684,7.73105263 C29.71,6.23052632 28.4273684,5.57789474 27.1442105,5.57789474 C25.5131579,5.57789474 24.4036842,6.16526316 23.6226316,7.44842105 L23.5784211,7.44842105 L23.5784211,6.75842105 C23.5715789,6.25105263 23.1610526,5.84105263 22.6521053,5.84105263 C22.6478947,5.84105263 22.6457895,5.83894737 22.6421053,5.83894737 L21.6647368,5.83894737 L21.6647368,16.9289474 L22.7721053,16.9289474 C22.7731579,16.9289474 22.7731579,16.9284211 22.7736842,16.9284211 C23.2863158,16.9284211 23.7015789,16.5126316 23.7015789,16.0010526 C23.7015789,15.9873684 23.7057895,15.9815789 23.7089474,15.9726316 L23.7089474,11.3410526 C23.7089474,9.27473684 24.5347368,7.23052632 26.6221053,7.23052632 C28.2747368,7.23052632 28.6021053,8.94789474 28.6021053,10.3178947 L28.6021053,16.9284211 L29.7242105,16.9284211 C29.7252632,16.9284211 29.7252632,16.9278947 29.7278947,16.9278947 C30.2110526,16.9278947 30.6015789,16.5563158 30.6452632,16.0836842 L30.6452632,11.3410526 C30.6452632,9.27473684 31.4721053,7.23052632 33.5589474,7.23052632 C35.2115789,7.23052632 35.5384211,8.94789474 35.5384211,10.3178947 L35.5384211,16.9284211 L36.6757895,16.9284211 L36.6757895,16.9289474 Z"></path>
                        <path d="M68.2621053,16.9289474 C68.2642105,16.9289474 68.2642105,16.9284211 68.2657895,16.9284211 C68.7631579,16.9284211 69.1652632,16.5357895 69.1884211,16.0431579 L69.1884211,10.34 C69.1884211,7.36157895 67.9047368,5.57789474 65.0342105,5.57789474 C63.4905263,5.57789474 62.0131579,6.33947368 61.4026316,7.60105263 L61.36,7.60105263 L61.36,6.77263158 C61.36,6.77157895 61.3584211,6.77157895 61.3584211,6.76947368 C61.3584211,6.25578947 60.9431579,5.84105263 60.4315789,5.84105263 C60.4263158,5.84105263 60.4247368,5.83894737 60.4205263,5.83894737 L59.3794737,5.83894737 L59.3794737,16.9289474 L60.5026316,16.9289474 C60.5031579,16.9289474 60.5031579,16.9284211 60.5063158,16.9284211 C60.9921053,16.9284211 61.3863158,16.5515789 61.4242105,16.0747368 L61.4242105,11.7973684 C61.4242105,9.10105263 62.4689474,7.23105263 64.7947368,7.23105263 C66.5794737,7.33947368 67.1426316,8.6 67.1426316,11.1884211 L67.1426316,16.9289474 L68.2621053,16.9289474 Z"></path>
                        <path d="M79.2657895,5.83894737 C79.2626316,5.83894737 79.2605263,5.84105263 79.2547368,5.84105263 C78.8242105,5.84105263 78.4063158,6.13684211 78.2257895,6.53736842 L75.4131579,15.0157895 L75.3684211,15.0157895 L72.6168421,6.54105263 C72.4368421,6.13894737 72.0173684,5.84052632 71.5842105,5.84052632 C71.5810526,5.84052632 71.5778947,5.83842105 71.5747368,5.83842105 L70.1494737,5.83842105 L73.9110526,16.1894737 C74.0421053,16.5594737 74.3042105,17.1247368 74.3042105,17.3636842 C74.3042105,17.5805263 73.6931579,20.1026316 71.8668421,20.1026316 C71.8210526,20.1026316 71.7763158,20.0973684 71.7305263,20.0947368 C71.2652632,20.0689474 70.9136842,20.3947368 70.8352632,20.8957895 L70.78,21.6031579 C71.1494737,21.6684211 71.5205263,21.7557895 72.1726316,21.7557895 C74.8684211,21.7557895 75.6736842,19.2978947 76.4352632,17.1678947 L80.5236842,5.83789474 L79.2657895,5.83789474 L79.2657895,5.83894737 Z"></path>
                    </g>
                </g>
            </g>
        </g>
    </g>
</svg>