<?xml version="1.0" encoding="UTF-8"?>
<svg width="96px" height="24px" viewBox="0 0 96 24" version="1.1" xmlns="http://www.w3.org/2000/svg" xmlns:xlink="http://www.w3.org/1999/xlink">
    <!-- Generator: Sketch 54.1 (76490) - https://sketchapp.com -->
    <title>technology-api-platform-detail-color copy</title>
    <desc>Created with Sketch.</desc>
    <g id="Page-1-Copy" stroke="none" stroke-width="1" fill="none" fill-rule="evenodd">
        <g id="Artboard" transform="translate(-856.000000, -434.000000)">
            <g id="technology-api-platform-detail-color-copy" transform="translate(856.000000, 434.000000)">
                <g id="Group-4" transform="translate(0.043636, 0.052364)">
                    <path d="M32.7272727,8.42181818 L34.1061818,9.54763636 C34.5076364,9.888 34.7258182,10.1585455 34.7607273,10.6734545 L34.7607273,14.6705455 C34.7607273,15.1767273 34.3592727,15.5781818 33.8530909,15.5781818 C33.3381818,15.5781818 32.928,15.1767273 32.928,14.6705455 L32.928,13.7716364 L31.0952727,12.0698182 L31.0952727,14.6705455 C31.0952727,15.1767273 30.6850909,15.5781818 30.1789091,15.5781818 C29.6727273,15.5781818 29.2538182,15.1767273 29.2538182,14.6705455 L29.2538182,10.6821818 C29.2974545,10.1672727 29.5418182,9.888 29.9258182,9.55636364 L31.2785455,8.43054545 C31.8109091,8.00290909 32.2036364,7.97672727 32.7272727,8.42181818 Z M32.928,11.9476364 L32.928,10.0276364 L31.0952727,10.0276364 L31.0952727,11.9476364 L32.928,11.9476364 Z" id="Shape" fill="#B7B7B7" fill-rule="nonzero"></path>
                    <path d="M37.5185455,13.7192727 L37.5185455,14.6094545 C37.5185455,15.1243636 37.1345455,15.552 36.6196364,15.552 C36.1134545,15.552 35.6945455,15.1330909 35.6945455,14.6094545 C35.6945455,12.9774545 35.6945455,11.3367273 35.6945455,9.70472727 C35.6945455,8.84945455 36.4014545,8.14254545 37.2567273,8.14254545 C37.7541818,8.14254545 38.1556364,8.14254545 38.6618182,8.14254545 C39.0807273,8.14254545 39.4472727,8.29090909 39.7527273,8.57890909 L40.7650909,9.59127273 C41.4283636,10.2283636 41.3149091,11.7905455 40.6690909,12.4101818 L39.7527273,13.2829091 C39.4472727,13.5883636 39.0894545,13.728 38.6618182,13.728 L37.5185455,13.728 L37.5185455,13.7192727 Z M39.2901818,11.8778182 L39.2901818,9.984 L37.536,9.96654545 L37.536,11.8778182 L39.2901818,11.8778182 L39.2901818,11.8778182 Z" id="Shape" fill="#B7B7B7" fill-rule="nonzero"></path>
                    <path d="M49.8938182,13.7192727 L49.8938182,14.6094545 C49.8938182,15.1243636 49.5098182,15.552 48.9949091,15.552 C48.4887273,15.552 48.0698182,15.1330909 48.0698182,14.6094545 C48.0698182,12.9774545 48.0698182,11.3367273 48.0698182,9.70472727 C48.0698182,8.84945455 48.7767273,8.14254545 49.632,8.14254545 C50.1294545,8.14254545 50.5309091,8.14254545 51.0370909,8.14254545 C51.456,8.14254545 51.8225455,8.29090909 52.128,8.57890909 L53.1403636,9.59127273 C53.8036364,10.2283636 53.6901818,11.7905455 53.0443636,12.4101818 L52.128,13.2829091 C51.8225455,13.5883636 51.4647273,13.728 51.0370909,13.728 L49.8938182,13.728 L49.8938182,13.7192727 Z M51.6654545,11.8778182 L51.6654545,9.984 L49.9112727,9.96654545 L49.9112727,11.8778182 L51.6654545,11.8778182 L51.6654545,11.8778182 Z" id="Shape" fill="#B7B7B7" fill-rule="nonzero"></path>
                    <path d="M54.1527273,13.9636364 C54.1527273,12.3316364 54.1527273,10.6909091 54.1527273,9.03272727 C54.1527273,8.53527273 54.5890909,8.12509091 55.0778182,8.12509091 C55.6014545,8.12509091 56.0203636,8.53527273 56.0203636,9.03272727 L56.0203636,13.7192727 C56.9454545,13.7192727 56.6836364,13.7018182 57.6,13.7018182 C58.8130909,13.7018182 58.8130909,15.5607273 57.6,15.5607273 C56.7621818,15.5607273 56.2734545,15.5607273 55.7498182,15.5607273 C54.8858182,15.5607273 54.1527273,14.8450909 54.1527273,13.9636364 Z" id="Path" fill="#B7B7B7" fill-rule="nonzero"></path>
                    <path d="M62.5221818,8.42181818 L63.9010909,9.54763636 C64.3025455,9.888 64.5207273,10.1585455 64.5556364,10.6734545 L64.5556364,14.6705455 C64.5556364,15.1767273 64.1541818,15.5781818 63.648,15.5781818 C63.1330909,15.5781818 62.7229091,15.1767273 62.7229091,14.6705455 L62.7229091,13.7716364 L60.8901818,12.0698182 L60.8901818,14.6705455 C60.8901818,15.1767273 60.48,15.5781818 59.9738182,15.5781818 C59.4676364,15.5781818 59.0487273,15.1767273 59.0487273,14.6705455 L59.0487273,10.6821818 C59.0923636,10.1672727 59.3367273,9.888 59.7207273,9.55636364 L61.0734545,8.43054545 C61.6058182,8.00290909 61.9985455,7.97672727 62.5221818,8.42181818 Z M62.7229091,11.9476364 L62.7229091,10.0276364 L60.8901818,10.0276364 L60.8901818,11.9476364 L62.7229091,11.9476364 Z" id="Shape" fill="#B7B7B7" fill-rule="nonzero"></path>
                    <path d="M68.9803636,8.12509091 C70.176,8.12509091 70.176,9.95781818 68.9803636,9.95781818 C68.064,9.95781818 69.1112727,9.95781818 68.1861818,9.95781818 C68.1861818,11.5112727 68.1861818,13.0996364 68.1861818,14.6356364 C68.1861818,15.8836364 66.336,15.8836364 66.336,14.6356364 C66.336,13.1083636 66.336,11.5112727 66.336,9.95781818 C65.4196364,9.95781818 66.4669091,9.95781818 65.5418182,9.95781818 C64.3374545,9.95781818 64.3374545,8.12509091 65.5418182,8.12509091 C66.6938182,8.12509091 67.8283636,8.12509091 68.9803636,8.12509091 Z" id="Path" fill="#B7B7B7" fill-rule="nonzero"></path>
                    <path d="M72.2705455,9.97527273 C72.2705455,10.3156364 72.2705455,10.8829091 72.2705455,11.1970909 C72.9687273,11.1970909 73.2305455,11.1970909 73.9287273,11.1970909 C74.4261818,11.1970909 74.8450909,11.6072727 74.8450909,12.1134545 C74.8450909,12.6109091 74.4261818,13.0385455 73.9025455,13.0385455 C73.2305455,13.0385455 72.96,13.0385455 72.2705455,13.0385455 C72.2705455,13.6581818 72.2705455,14.0334545 72.2705455,14.6530909 C72.2705455,15.8574545 70.4203636,15.8574545 70.4203636,14.6530909 C70.4203636,12.9949091 70.4203636,11.328 70.4203636,9.67854545 C70.4203636,8.81454545 71.1185455,8.11636364 71.9738182,8.11636364 C72.9949091,8.11636364 73.3178182,8.11636364 74.3301818,8.11636364 C74.8450909,8.11636364 75.2552727,8.52654545 75.2552727,9.024 C75.2552727,9.53018182 74.8189091,9.96654545 74.3301818,9.96654545 L72.2705455,9.96654545 L72.2705455,9.97527273 Z" id="Path" fill="#B7B7B7" fill-rule="nonzero"></path>
                    <path d="M77.3672727,8.16 L79.4792727,8.16 C80.3170909,8.16 81.0414545,8.84945455 81.0414545,9.72218182 L81.0414545,13.9636364 C81.0414545,14.7229091 80.3170909,15.5258182 79.5316364,15.5258182 L77.3236364,15.5258182 C76.5381818,15.5258182 75.7614545,14.7229091 75.7614545,13.9636364 L75.7614545,9.72218182 C75.7614545,8.80581818 76.5207273,8.16 77.3672727,8.16 Z M79.1912727,10.0101818 L77.6116364,10.0101818 L77.6116364,13.7018182 L79.1912727,13.7018182 L79.1912727,10.0101818 Z" id="Shape" fill="#B7B7B7" fill-rule="nonzero"></path>
                    <path d="M86.2690909,12.5236364 C86.9236364,12.9250909 87.1592727,13.4312727 87.1592727,14.0945455 L87.1592727,14.6356364 C87.1592727,15.1418182 86.7490909,15.552 86.2603636,15.552 C85.7454545,15.552 85.3527273,15.1156364 85.3527273,14.6356364 L85.3527273,14.1207273 L83.5461818,11.9214545 C83.5461818,13.0647273 83.5461818,13.4923636 83.5461818,14.6356364 C83.5461818,15.1418182 83.1447273,15.552 82.6385455,15.552 C82.1236364,15.552 81.7134545,15.1418182 81.7134545,14.6356364 C81.7134545,12.7854545 81.7134545,10.9178182 81.7134545,9.07636364 C81.7134545,8.56145455 82.1236364,8.15127273 82.6385455,8.15127273 C83.328,8.15127273 84.0087273,8.15127273 84.6981818,8.15127273 C85.1345455,8.15127273 85.4923636,8.30836364 85.8065455,8.60509091 L86.7054545,9.46909091 C87.0196364,9.78327273 87.2029091,10.1585455 87.2029091,10.6123636 C87.2029091,10.752 87.2029091,10.8829091 87.2029091,11.0225455 C87.1941818,11.7381818 86.8538182,12.2269091 86.2690909,12.5236364 Z M83.5374545,9.984 L83.5374545,11.7556364 L85.344,11.7556364 C85.344,11.1621818 85.344,10.5774545 85.344,9.984 L83.5374545,9.984 Z" id="Shape" fill="#B7B7B7" fill-rule="nonzero"></path>
                    <path d="M91.0341818,8.43054545 L91.8370909,9.28581818 L92.64,8.43054545 C93.0850909,7.968 93.7134545,7.968 94.1323636,8.43054545 L95.2058182,9.54763636 C95.5287273,9.91418182 95.808,10.1498182 95.8603636,10.6647273 L95.8603636,14.688 C95.8603636,15.8836364 94.0014545,15.8836364 94.0014545,14.688 C94.0014545,13.1345455 94.0014545,11.5636364 94.0014545,10.0101818 L92.7621818,10.0101818 C92.7621818,11.5636364 92.7621818,13.1345455 92.7621818,14.688 C92.7621818,15.9098182 90.912,15.9098182 90.912,14.688 C90.912,13.1345455 90.912,11.5636364 90.912,10.0101818 L89.6989091,10.0101818 C89.6989091,11.5636364 89.6989091,13.1345455 89.6989091,14.688 C89.6989091,15.8836364 87.84,15.8836364 87.84,14.688 L87.84,10.6647273 C87.8574545,10.1498182 88.1541818,9.91418182 88.4945455,9.54763636 L89.568,8.43054545 C89.9869091,7.968 90.624,7.968 91.0341818,8.43054545 Z" id="Path" fill="#B7B7B7" fill-rule="nonzero"></path>
                    <path d="M41.8647273,11.2756364 C41.8647273,10.0712727 43.7149091,10.0712727 43.7149091,11.2669091 C43.7149091,13.1432727 43.7149091,12.8029091 43.7149091,14.6792727 C43.7149091,15.8836364 41.8647273,15.8749091 41.8647273,14.6792727 C41.8647273,12.7854545 41.8647273,13.1432727 41.8647273,11.2756364 Z" id="Path" fill="#B7B7B7" fill-rule="nonzero"></path>
                    <polygon id="Path" fill="#B7B7B7" fill-rule="nonzero" points="43.68 10.0276364 43.68 8.13381818 41.9258182 8.11636364 41.9258182 10.0276364"></polygon>
                    <circle id="Oval" fill="#B7B7B7" fill-rule="nonzero" cx="11.9301818" cy="11.9301818" r="11.9301818"></circle>
                    <ellipse id="Oval" fill="#707070" fill-rule="nonzero" cx="15.1069091" cy="15.1330909" rx="1.45745455" ry="1"></ellipse>
                    <ellipse id="Oval" fill="#707070" fill-rule="nonzero" cx="17.4981818" cy="17.1752727" rx="1.45745455" ry="1"></ellipse>
                    <ellipse id="Oval" fill="#707070" fill-rule="nonzero" cx="20.2647273" cy="16.128" rx="1.45745455" ry="1"></ellipse>
                    <ellipse id="Oval" fill="#707070" fill-rule="nonzero" cx="18.2050909" cy="15.0370909" rx="1.45745455" ry="1"></ellipse>
                    <path d="M17.0618182,16.3025455 C17.3061818,16.3025455 17.6116364,16.5992727 17.6116364,16.9570909 C17.6116364,17.3149091 17.3410909,17.3061818 16.9309091,17.3061818 C16.5207273,17.3061818 16.0581818,17.3061818 16.0581818,16.9570909 C16.4334545,16.7127273 16.6778182,16.3025455 17.0618182,16.3025455 Z" id="Path" stroke="#000000" stroke-width="0.5" fill="#000000" fill-rule="nonzero"></path>
                    <path d="M17.6989091,14.2690909 C17.9170909,14.2690909 18.1876364,14.5483636 18.1876364,14.8712727 C18.1876364,15.1941818 17.9432727,15.1941818 17.5767273,15.1941818 C17.2101818,15.1941818 16.8,15.1941818 16.8,14.8712727 C17.1403636,14.6443636 17.3585455,14.2690909 17.6989091,14.2690909 Z" id="Path" stroke="#000000" stroke-width="0.5" fill="#000000" fill-rule="nonzero"></path>
                    <path d="M19.8545455,15.3076364 C20.0989091,15.3076364 20.4043636,15.6043636 20.4043636,15.9621818 C20.4043636,16.32 20.1338182,16.3112727 19.7236364,16.3112727 C19.3134545,16.3112727 18.8509091,16.3112727 18.8509091,15.9621818 C19.2261818,15.7178182 19.4792727,15.3076364 19.8545455,15.3076364 Z" id="Path" stroke="#000000" stroke-width="0.5" fill="#000000" fill-rule="nonzero"></path>
                    <path d="M14.496,14.4698182 C14.6792727,14.4698182 14.8974545,14.688 14.8974545,14.9585455 C14.8974545,15.2290909 14.6967273,15.2203636 14.3912727,15.2203636 C14.0858182,15.2203636 13.7454545,15.3250909 13.7454545,15.0632727 C14.0334545,14.88 14.2167273,14.4698182 14.496,14.4698182 Z" id="Path" stroke="#000000" stroke-width="0.5" fill="#000000" fill-rule="nonzero"></path>
                    <ellipse id="Oval" fill="#707070" fill-rule="nonzero" cx="8.72727273" cy="15.0458182" rx="1.45745455" ry="1"></ellipse>
                    <path d="M9.33818182,14.3912727 C9.15490909,14.3912727 8.93672727,14.6094545 8.93672727,14.88 C8.93672727,15.1505455 9.13745455,15.1418182 9.44290909,15.1418182 C9.74836364,15.1418182 10.0887273,15.2465455 10.0887273,14.9847273 C9.80072727,14.8014545 9.61745455,14.3912727 9.33818182,14.3912727 Z" id="Path" stroke="#000000" stroke-width="0.5" fill="#000000" fill-rule="nonzero"></path>
                    <polyline id="Path" stroke="#000000" stroke-width="0.5" points="13.6930909 10.8829091 16.8261818 9.13745455 16.8785455 14.8276364 17.4632727 14.9410909"></polyline>
                    <polyline id="Path" stroke="#000000" stroke-width="0.5" points="13.6930909 10.8829091 18.1614545 10.2283636 18.9469091 16.1541818"></polyline>
                    <polyline id="Path" stroke="#000000" stroke-width="0.5" points="13.5534545 11.712 14.8538182 12.0261818 13.9025455 14.8625455 14.4523636 14.8450909"></polyline>
                    <polyline id="Path" stroke="#000000" stroke-width="0.5" points="13.6930909 10.8829091 16.2589091 11.5549091 16.1367273 17.0007273 16.6778182 17.0705455"></polyline>
                    <ellipse id="Oval" fill="#707070" fill-rule="nonzero" cx="6.35345455" cy="17.1752727" rx="1.45745455" ry="1"></ellipse>
                    <ellipse id="Oval" fill="#707070" fill-rule="nonzero" cx="3.58690909" cy="16.128" rx="1.45745455" ry="1"></ellipse>
                    <ellipse id="Oval" fill="#707070" fill-rule="nonzero" cx="5.63781818" cy="14.9585455" rx="1.45745455" ry="1"></ellipse>
                    <path d="M6.79854545,16.3025455 C6.55418182,16.3025455 6.24872727,16.5992727 6.24872727,16.9570909 C6.24872727,17.3149091 6.51927273,17.3061818 6.92945455,17.3061818 C7.33963636,17.3061818 7.80218182,17.3061818 7.80218182,16.9570909 C7.42690909,16.7127273 7.17381818,16.3025455 6.79854545,16.3025455 Z" id="Path" stroke="#000000" stroke-width="0.5" fill="#000000" fill-rule="nonzero"></path>
                    <path d="M6.01309091,14.1556364 C5.76872727,14.1556364 5.46327273,14.4523636 5.46327273,14.8101818 C5.46327273,15.168 5.73381818,15.1592727 6.144,15.1592727 C6.55418182,15.1592727 7.01672727,15.1592727 7.01672727,14.8101818 C6.63272727,14.5658182 6.38836364,14.1556364 6.01309091,14.1556364 Z" id="Path" stroke="#000000" stroke-width="0.5" fill="#000000" fill-rule="nonzero"></path>
                    <path d="M3.99709091,15.3076364 C3.75272727,15.3076364 3.44727273,15.6043636 3.44727273,15.9621818 C3.44727273,16.32 3.71781818,16.3112727 4.128,16.3112727 C4.53818182,16.3112727 5.00072727,16.3112727 5.00072727,15.9621818 C4.62545455,15.7178182 4.38109091,15.3076364 3.99709091,15.3076364 Z" id="Path" stroke="#000000" stroke-width="0.5" fill="#000000" fill-rule="nonzero"></path>
                    <polyline id="Path" stroke="#000000" stroke-width="0.5" points="10.1585455 10.8829091 7.03418182 9.13745455 6.97309091 14.8276364 6.39709091 14.9410909"></polyline>
                    <polyline id="Path" stroke="#000000" stroke-width="0.5" points="10.1585455 10.8829091 5.69018182 10.2283636 4.90472727 16.1541818"></polyline>
                    <polyline id="Path" stroke="#000000" stroke-width="0.5" points="10.2981818 11.712 8.99781818 12.0261818 9.94909091 14.8625455 9.46909091 15.072"></polyline>
                    <polyline id="Path" stroke="#000000" stroke-width="0.5" points="10.1585455 10.8829091 7.60145455 11.5549091 7.71490909 17.0007273 7.17381818 17.0705455"></polyline>
                    <path d="M13.728,8.71854545 C13.728,8.71854545 14.9672727,8.78836364 14.9672727,9.99272727 C14.9672727,11.1970909 14.0683636,12.2007273 12.3665455,12.4189091 C10.7345455,12.6283636 9.18109091,11.8254545 9.18109091,9.89672727 C9.18109091,7.968 10.9701818,8.29090909 10.9701818,8.29090909" id="Path" stroke="#000000" stroke-width="0.5" fill="#8A8A8A" fill-rule="nonzero"></path>
                    <ellipse id="Oval" stroke="#000000" stroke-width="0.5" fill="#FFFFFF" fill-rule="nonzero" cx="13.632" cy="8.50036364" rx="1.44872727" ry="1.50109091"></ellipse>
                    <circle id="Oval" fill="#000000" fill-rule="nonzero" cx="13.7716364" cy="8.57890909" r="1"></circle>
                    <circle id="Oval" fill="#FFFFFF" fill-rule="nonzero" cx="13.6145455" cy="8.45672727" r="1"></circle>
                    <ellipse id="Oval" stroke="#000000" stroke-width="0.5" fill="#FFFFFF" fill-rule="nonzero" cx="10.9090909" cy="8.18618182" rx="1.83272727" ry="1.89381818"></ellipse>
                    <circle id="Oval" fill="#000000" fill-rule="nonzero" cx="11.0574545" cy="8.29090909" r="1"></circle>
                    <circle id="Oval" fill="#FFFFFF" fill-rule="nonzero" transform="translate(11.486011, 8.134406) rotate(-3.286823) translate(-11.486011, -8.134406) " cx="11.4860107" cy="8.13440601" r="1"></circle>
                </g>
            </g>
        </g>
    </g>
</svg>